<svg xmlns="http://www.w3.org/2000/svg" width="135" height="180" viewBox="0 0 135 180" fill="none">
    <path
        d="M67.0214 69.3271L0.929688 34.6064L67.0214 0L133.113 34.6064L67.0214 69.3271ZM15.9136 34.6064L67.0214 61.4465L118.13 34.6064L67.0214 7.88067L15.9136 34.6064Z"
        fill="white" />
    <path
        d="M134.042 47.2852V127.92L67.2532 163.44L0 127.92V47.2852L7.08542 51.0542V123.694L67.2532 155.559L126.957 123.808V51.0542L134.042 47.2852Z"
        fill="#D2AA1B" />
    <path d="M67.2514 180L5.10889 147.221L5.22504 139.341L67.2514 172.119L128.813 139.341V147.335L67.2514 180Z"
        fill="white" />
    <path d="M22.5332 58.2484V122.093L15.4478 118.21V54.5938L22.5332 58.2484Z" fill="white" />
    <path d="M118.014 54.9368V117.754L110.928 122.094V58.5914L118.014 54.9368Z" fill="white" />
    <path
        d="M67.0209 73.781L32.2905 132.829H40.1891L44.3707 125.748H55.0568L59.0061 119.009H48.32L67.0209 87.1437L73.8738 98.7934L53.8953 132.715H61.7936L66.0916 125.405H89.5546L93.8523 132.715H101.751L67.0209 73.781ZM70.0406 118.781L77.8231 105.646L85.6053 118.781H70.0406Z"
        fill="#D2AA1B" />
</svg>